<?xml version="1.0" encoding="UTF-8"?>
<svg xmlns="http://www.w3.org/2000/svg" xmlns:xlink="http://www.w3.org/1999/xlink" width="20px" height="20px" viewBox="0 0 20 20" version="1.1">
<g id="surface1">
<path style=" stroke:none;fill-rule:nonzero;fill:rgb(0%,0%,0%);fill-opacity:1;" d="M 18.46875 2.238281 C 17.433594 1.078125 16.003906 0.4375 14.449219 0.4375 C 13.234375 0.4375 11.925781 1.160156 10.964844 1.6875 C 10.617188 1.882812 10.140625 2.144531 10 2.160156 C 9.859375 2.144531 9.386719 1.882812 9.039062 1.691406 C 8.082031 1.160156 6.773438 0.4375 5.550781 0.4375 C 3.996094 0.4375 2.566406 1.078125 1.53125 2.238281 C 0.542969 3.34375 0 4.796875 0 6.332031 C 0 8.527344 0.789062 11.644531 2.105469 14.675781 C 2.695312 16.027344 3.320312 17.191406 3.914062 18.046875 C 4.621094 19.066406 5.230469 19.5625 5.773438 19.5625 C 6.011719 19.5625 6.453125 19.460938 6.699219 18.777344 C 6.941406 18.113281 7.15625 17.351562 7.386719 16.542969 C 7.992188 14.402344 8.746094 11.738281 9.960938 11.738281 L 10.039062 11.738281 C 10.578125 11.738281 11.0625 12.199219 11.515625 13.152344 C 11.964844 14.09375 12.308594 15.347656 12.640625 16.5625 C 12.859375 17.363281 13.066406 18.121094 13.296875 18.773438 C 13.539062 19.453125 13.976562 19.554688 14.214844 19.554688 C 14.753906 19.554688 15.363281 19.054688 16.070312 18.019531 C 16.664062 17.152344 17.292969 15.976562 17.882812 14.613281 C 19.207031 11.558594 20 8.460938 20 6.332031 C 20 4.796875 19.457031 3.34375 18.46875 2.238281 M 14.074219 3.8125 C 14.0625 3.8125 12.808594 3.75 11.664062 3.449219 C 11.148438 3.3125 10.539062 3.039062 10.539062 2.957031 C 10.539062 2.878906 11.203125 2.492188 11.359375 2.402344 C 12.242188 1.917969 13.445312 1.253906 14.449219 1.253906 C 17.414062 1.253906 19.183594 3.835938 19.183594 6.332031 C 19.183594 8.324219 18.398438 11.375 17.132812 14.289062 C 16.570312 15.585938 15.953125 16.746094 15.398438 17.554688 C 14.757812 18.492188 14.339844 18.765625 14.214844 18.738281 C 14.136719 18.722656 14.128906 18.667969 14.066406 18.5 C 13.84375 17.878906 13.640625 17.132812 13.425781 16.347656 C 13.085938 15.097656 12.734375 13.808594 12.253906 12.800781 C 11.648438 11.535156 10.925781 10.921875 10.039062 10.921875 L 9.960938 10.921875 C 9.109375 10.921875 8.398438 11.53125 7.796875 12.785156 C 7.316406 13.785156 6.953125 15.074219 6.601562 16.320312 C 6.375 17.113281 6.164062 17.863281 5.933594 18.5 C 5.882812 18.640625 5.867188 18.730469 5.773438 18.746094 C 5.699219 18.757812 5.382812 18.734375 4.585938 17.582031 C 4.027344 16.78125 3.414062 15.632812 2.855469 14.351562 C 1.597656 11.460938 0.816406 8.386719 0.816406 6.332031 C 0.816406 3.835938 2.585938 1.253906 5.550781 1.253906 C 6.320312 1.253906 7.332031 1.605469 8.257812 2.191406 C 8.390625 2.277344 8.582031 2.425781 8.769531 2.566406 C 8.839844 2.625 8.914062 2.679688 8.980469 2.730469 C 9.199219 2.894531 9.492188 3.105469 9.835938 3.308594 C 9.980469 3.394531 10.164062 3.503906 10.359375 3.585938 C 11.101562 3.898438 11.886719 4.058594 12.695312 4.058594 C 13.519531 4.058594 14.074219 3.914062 14.078125 3.910156 C 14.078125 3.910156 14.203125 3.878906 14.199219 3.847656 C 14.195312 3.8125 14.074219 3.8125 14.074219 3.8125 Z M 14.074219 3.8125 "/>
</g>
</svg>
